HIERARCHY
ROOT RootJoint
{
    OFFSET   0.000000   0.000000   0.000000
    CHANNELS 6 Xposition Yposition Zposition Xrotation Yrotation Zrotation
    JOINT pelvis_lowerback
    {
        OFFSET   0.000000   0.093605   0.000000
        CHANNELS 3 Xrotation Yrotation Zrotation
        JOINT lowerback_torso
        {
            OFFSET   0.000000   0.100000   0.000000
            CHANNELS 3 Xrotation Yrotation Zrotation
            JOINT torso_head
            {
                OFFSET   0.000000   0.282350   0.000000
                CHANNELS 3 Xrotation Yrotation Zrotation
                End Site
                {
                    OFFSET   0.000000   0.192650   0.000000
                }
            }
            JOINT rTorso_Clavicle
            {
                OFFSET  -0.001000   0.157500   0.000000
                CHANNELS 3 Xrotation Yrotation Zrotation
                JOINT rShoulder
                {
                    OFFSET  -0.117647   0.000000   0.000000
                    CHANNELS 3 Xrotation Yrotation Zrotation
                    JOINT rElbow
                    {
                        OFFSET  -0.245000   0.000000   0.000000
                        CHANNELS 3 Xrotation Yrotation Zrotation
                        JOINT rWrist
                        {
                            OFFSET  -0.240000   0.000000   0.000000
                            CHANNELS 3 Xrotation Yrotation Zrotation
                            End Site
                            {
                                OFFSET  -0.116353  -0.002500   0.000000
                            }
                        }
                    }
                }
            }
            JOINT lTorso_Clavicle
            {
                OFFSET   0.001000   0.157500   0.000000
                CHANNELS 3 Xrotation Yrotation Zrotation
                JOINT lShoulder
                {
                    OFFSET   0.117647   0.000000   0.000000
                    CHANNELS 3 Xrotation Yrotation Zrotation
                    JOINT lElbow
                    {
                        OFFSET   0.245000   0.000000   0.000000
                        CHANNELS 3 Xrotation Yrotation Zrotation
                        JOINT lWrist
                        {
                            OFFSET   0.240000   0.000000   0.000000
                            CHANNELS 3 Xrotation Yrotation Zrotation
                            End Site
                            {
                                OFFSET   0.116353  -0.002500   0.000000
                            }
                        }
                    }
                }
            }
        }
    }
    JOINT rHip
    {
        OFFSET  -0.100000  -0.051395   0.000000
        CHANNELS 3 Xrotation Yrotation Zrotation
        JOINT rKnee
        {
            OFFSET   0.000000  -0.410000   0.000000
            CHANNELS 3 Xrotation Yrotation Zrotation
            JOINT rAnkle
            {
                OFFSET   0.000000  -0.390000   0.000000
                CHANNELS 3 Xrotation Yrotation Zrotation
                JOINT rToeJoint
                {
                    OFFSET   0.000000  -0.050000   0.130000
                    CHANNELS 3 Xrotation Yrotation Zrotation
                    End Site
                    {
                        OFFSET  -0.010000   0.002000   0.060000
                    }
                }
            }
        }
    }
    JOINT lHip
    {
        OFFSET   0.100000  -0.051395   0.000000
        CHANNELS 3 Xrotation Yrotation Zrotation
        JOINT lKnee
        {
            OFFSET   0.000000  -0.410000   0.000000
            CHANNELS 3 Xrotation Yrotation Zrotation
            JOINT lAnkle
            {
                OFFSET   0.000000  -0.390000   0.000000
                CHANNELS 3 Xrotation Yrotation Zrotation
                JOINT lToeJoint
                {
                    OFFSET   0.000000  -0.050000   0.130000
                    CHANNELS 3 Xrotation Yrotation Zrotation
                    End Site
                    {
                        OFFSET   0.010000   0.002000   0.060000
                    }
                }
            }
        }
    }
}
MOTION
Frames: 12
Frame Time:   0.008333
 -2.424689   0.912484   4.762280  -9.126258  -6.134492  -0.305057  10.724816   1.164541  -2.584732   5.237310   0.001064   0.240998  -1.073898  -0.110015   2.257259   2.721395  -0.089360  11.742635   5.459551   6.885113  44.823260   0.000767  26.403199  -0.003376   5.144060   3.696428   0.987012   3.510734   1.248492 -10.475304   2.919321  -0.617378 -40.273378  -0.017279 -13.166664  -0.003241   3.071454  -1.314743   0.008446   4.535345  -2.760015  -9.191319  35.303007  -0.002560   0.001571 -11.858036  -3.644161   2.650709  -5.966405   0.003661  -0.006527  -1.660623  -2.157320  -0.176123  15.273303  -0.000380  -0.000558  -4.546844   1.652311   2.012387  -0.162601  -0.000008   0.000010
 -2.424785   0.912840   4.764480  -9.125654  -5.918367  -0.372532  10.710565   1.042787  -2.607513   5.130579  -0.165086   0.266996  -0.995552  -0.019079   2.173889   2.808342  -0.125071  11.683593   5.754165   6.657890  44.925828   0.001031  25.557492  -0.003409   5.143045   3.777796   0.973535   3.217684   0.840149 -10.319174   2.072063  -0.944481 -39.780588  -0.019818 -14.207599  -0.005538   3.067094  -1.304751   0.317584   4.478744  -2.993113  -9.351424  34.765866  -0.002900   0.002010 -11.623675  -3.894333   2.726464  -5.689976   0.003245  -0.006073  -1.483849  -2.278281  -0.106576  15.191666  -0.000320  -0.000514  -4.640249   1.556362   2.035638  -0.160971  -0.000007   0.000008
 -2.424943   0.913162   4.766576  -9.120140  -5.707201  -0.428019  10.697040   0.930569  -2.642750   5.021934  -0.332238   0.287758  -0.921656   0.071525   2.087483   2.910477  -0.166629  11.629294   6.048471   6.429469  45.023044   0.001220  24.749100  -0.003347   5.146207   3.746831   0.987895   2.907028   0.429351 -10.140516   1.250838  -1.290281 -39.296209  -0.021765 -15.208441  -0.007240   3.057581  -1.458824   0.680975   4.412065  -3.211338  -9.503836  34.230363  -0.003128   0.002257 -11.402685  -4.127896   2.798500  -5.414846   0.002868  -0.005622  -1.321027  -2.396369  -0.043263  15.114338  -0.000269  -0.000474  -4.729580   1.462246   2.056990  -0.158569  -0.000006   0.000006
 -2.425146   0.913458   4.768591  -9.116689  -5.516956  -0.478665  10.684520   0.812562  -2.682037   4.916833  -0.505821   0.306194  -0.852661   0.157603   2.003417   3.012394  -0.210471  11.576257   6.329057   6.211085  45.113225   0.001415  23.990337  -0.003480   5.151041   3.677227   1.011549   2.601365   0.026513  -9.955860   0.473250  -1.634191 -38.833105  -0.022888 -16.151575  -0.008107   3.049375  -1.675416   1.071207   4.335476  -3.411234  -9.647511  33.720569  -0.003208   0.002388 -11.196459  -4.345547   2.866680  -5.161901   0.002509  -0.005157  -1.160942  -2.503191   0.018487  15.041045  -0.000223  -0.000433  -4.818534   1.377627   2.075886  -0.155726  -0.000005   0.000005
 -2.425383   0.913734   4.770541  -9.116742  -5.352526  -0.527248  10.671673   0.687721  -2.721001   4.816520  -0.683332   0.323977  -0.788254   0.238024   1.923368   3.110696  -0.255801  11.523474   6.593774   6.004137  45.195987   0.001590  23.280616  -0.003771   5.156088   3.597060   1.033030   2.308867  -0.361404  -9.772985  -0.256952  -1.968626 -38.396133  -0.023256 -17.035974  -0.008326   3.043638  -1.911607   1.468238   4.251390  -3.595008  -9.782074  33.240010  -0.003160   0.002460 -11.003933  -4.548407   2.931155  -4.930262   0.002172  -0.004710  -1.000397  -2.596463   0.080343  14.971788  -0.000184  -0.000390  -4.908777   1.305200   2.092376  -0.152563  -0.000004   0.000004
 -2.425651   0.913991   4.772433  -9.120095  -5.213578  -0.574189  10.657669   0.558078  -2.757691   4.721189  -0.861772   0.341771  -0.728296   0.312769   1.847893   3.204979  -0.302451  11.471055   6.843035   5.808293  45.271854   0.001715  22.617306  -0.004128   5.160892   3.514534   1.049074   2.032640  -0.731155  -9.595817  -0.939983  -2.290184 -37.986854  -0.023011 -17.863557  -0.008108   3.040327  -2.150966   1.861210   4.162345  -3.764649  -9.907509  32.788451  -0.003018   0.002491 -10.824176  -4.737516   2.992087  -4.718310   0.001861  -0.004289  -0.839127  -2.676393   0.142275  14.906447  -0.000150  -0.000347  -5.000638   1.244896   2.106590  -0.149147  -0.000004   0.000003
 -2.425948   0.914229   4.774269  -9.126061  -5.097587  -0.618908  10.642233   0.425982  -2.791354   4.630839  -1.038700   0.359729  -0.672630   0.382131   1.777071   3.295401  -0.350172  11.419561   7.077713   5.623020  45.341691   0.001771  21.997477  -0.004473   5.165333   3.431921   1.059837   1.773723  -1.081381  -9.426489  -1.577509  -2.597237 -37.605299  -0.022300 -18.637118  -0.007622   3.039158  -2.386585   2.244238   4.070607  -3.921686 -10.023974  32.364875  -0.002813   0.002488 -10.656336  -4.913824   3.049631  -4.524439   0.001578  -0.003895  -0.677980  -2.744230   0.203564  14.844816  -0.000120  -0.000304  -5.093781   1.195467   2.118694  -0.145503  -0.000004   0.000003
 -2.426318   0.914441   4.776077  -9.124150  -4.946909  -0.644708  10.591156   0.318397  -2.848894   4.577658  -1.175224   0.383666  -0.618622   0.460249   1.684033   3.380105  -0.412742  11.369876   7.302201   5.359230  45.419773   0.001982  21.220055  -0.004993   5.160796   3.479291   1.076637   1.563442  -1.383638  -9.235945  -2.328876  -2.903727 -37.238970  -0.024701 -19.868928  -0.009860   3.028993  -2.324517   2.550368   4.011846  -4.122875 -10.132952  31.833769  -0.002671   0.002560 -10.065838  -5.056491   3.188982  -4.305512   0.001227  -0.003607  -0.529932  -2.865701   0.247184  14.780366  -0.000093  -0.000261  -5.182404   1.165014   2.144149  -0.137731  -0.000005   0.000002
 -2.426745   0.914626   4.777821  -9.120613  -4.804044  -0.659579  10.538616   0.216402  -2.914335   4.522531  -1.312811   0.401090  -0.565577   0.537461   1.591009   3.475216  -0.481063  11.317554   7.526419   5.098055  45.488581   0.002177  20.480293  -0.005336   5.157938   3.444032   1.098174   1.339472  -1.685987  -9.036282  -3.053773  -3.222867 -36.887278  -0.026332 -21.047019  -0.011417   3.020539  -2.431600   2.883041   3.950168  -4.310825 -10.231043  31.319621  -0.002478   0.002522  -9.509730  -5.187941   3.321176  -4.070553   0.000911  -0.003360  -0.388118  -2.980876   0.284232  14.717335  -0.000070  -0.000226  -5.268699   1.135679   2.167851  -0.129429  -0.000007   0.000002
 -2.427219   0.914789   4.779512  -9.118597  -4.679828  -0.668584  10.486134   0.109776  -2.981484   4.466329  -1.455952   0.413778  -0.515977   0.610581   1.501797   3.569728  -0.550646  11.261718   7.740982   4.848492  45.548778   0.002349  19.786191  -0.005675   5.156443   3.378235   1.116286   1.118452  -1.982764  -8.837487  -3.739206  -3.536972 -36.553380  -0.027044 -22.154108  -0.012104   3.015250  -2.597252   3.228733   3.884027  -4.484600 -10.317983  30.834871  -0.002228   0.002439  -8.990463  -5.309365   3.445881  -3.854357   0.000637  -0.003100  -0.247422  -3.083763   0.318457  14.656520  -0.000049  -0.000194  -5.355132   1.112392   2.188915  -0.120886  -0.000008   0.000001
 -2.427734   0.914933   4.781156  -9.118749  -4.577398  -0.673575  10.433363  -0.001718  -3.047583   4.410119  -1.602342   0.423371  -0.469963   0.678819   1.417367   3.660858  -0.620096  11.203467   7.943978   4.611963  45.601435   0.002463  19.136847  -0.005999   5.155265   3.303009   1.126611   0.906492  -2.268964  -8.644565  -4.382828  -3.840270 -36.239751  -0.026964 -23.190780  -0.012123   3.012496  -2.780672   3.574752   3.814680  -4.645859 -10.394381  30.380211  -0.001937   0.002346  -8.505640  -5.421604   3.563409  -3.656547   0.000402  -0.002845  -0.106428  -3.173073   0.351013  14.598252  -0.000030  -0.000164  -5.442724   1.097055   2.207399  -0.112160  -0.000009   0.000001
 -2.428289   0.915057   4.782754  -9.120814  -4.495954  -0.674820  10.380240  -0.116268  -3.111327   4.354593  -1.749392   0.430815  -0.427427   0.742219   1.337947   3.748070  -0.688841  11.144280   8.135424   4.388420  45.647959   0.002500  18.529910  -0.006265   5.154055   3.225354   1.129277   0.706018  -2.542204  -8.460237  -4.985162  -4.130381 -35.947262  -0.026270 -24.160136  -0.011688   3.011693  -2.967658   3.913665   3.743737  -4.796011 -10.461066  29.954512  -0.001629   0.002250  -8.052977  -5.525413   3.674096  -3.475666   0.000203  -0.002603   0.034524  -3.249417   0.381888  14.542704  -0.000014  -0.000136  -5.531547   1.089497   2.223451  -0.103271  -0.000010   0.000001
